<svg id="Layer_1" data-name="Layer 1" xmlns="http://www.w3.org/2000/svg" viewBox="0 0 500 500"><defs><style>.cls-1{fill:#fff;}.cls-2{fill:#1077b5;}</style></defs><circle class="cls-1" cx="250" cy="250" r="250"/><path class="cls-2" d="M251.53,96.88q38.8,0,62.43,21.73t23.62,52.93a82.33,82.33,0,0,1-10.13,39.23q-10.11,19-21.93,31a191.25,191.25,0,0,0-21.93,27q-10.12,15-10.13,28.05V301a7.2,7.2,0,0,1-7.17,7.17H241q-7.17,0-7.17-7.59v-8q0-16.86,9.49-33.53A130.34,130.34,0,0,1,264,231.23a145.08,145.08,0,0,0,20.67-26.57q9.5-15.4,9.49-29.74,0-18.13-12.65-29.53T249,134q-33.33,0-52.31,33.75a8.36,8.36,0,0,1-6.32,4.43,11.07,11.07,0,0,1-8-1.9l-14.76-8.44q-8.86-5.06-2.53-16,11-21.08,33.74-35T251.53,96.88Zm2.95,306.24a31.7,31.7,0,0,1-23-9.28A30.17,30.17,0,0,1,222,371.48a30.67,30.67,0,0,1,9.49-22.78,31.7,31.7,0,0,1,23-9.28,30.19,30.19,0,0,1,22.36,9.49,31.22,31.22,0,0,1,9.28,22.57,31.68,31.68,0,0,1-31.64,31.64Z"/></svg>